<svg width="460" height="400"><g transform="translate( 90, 20  )"><g transform="translate( 0, 340 )" fill="none" font-size="10" font-family="sans-serif" text-anchor="middle"><path class="domain" stroke="#000" d="M0.5,6V0.5H340.5V6"></path><g class="tick" opacity="1" transform="translate(0.5,0)"><line stroke="#000" y2="6"></line><text fill="#000" y="9" dy="0.71em" transform="translate(-10,0)rotate(-45)" style="text-anchor: end;">0</text></g><g class="tick" opacity="1" transform="translate(26.653846153846157,0)"><line stroke="#000" y2="6"></line><text fill="#000" y="9" dy="0.71em" transform="translate(-10,0)rotate(-45)" style="text-anchor: end;">1,000</text></g><g class="tick" opacity="1" transform="translate(52.807692307692314,0)"><line stroke="#000" y2="6"></line><text fill="#000" y="9" dy="0.71em" transform="translate(-10,0)rotate(-45)" style="text-anchor: end;">2,000</text></g><g class="tick" opacity="1" transform="translate(78.96153846153847,0)"><line stroke="#000" y2="6"></line><text fill="#000" y="9" dy="0.71em" transform="translate(-10,0)rotate(-45)" style="text-anchor: end;">3,000</text></g><g class="tick" opacity="1" transform="translate(105.11538461538463,0)"><line stroke="#000" y2="6"></line><text fill="#000" y="9" dy="0.71em" transform="translate(-10,0)rotate(-45)" style="text-anchor: end;">4,000</text></g><g class="tick" opacity="1" transform="translate(131.26923076923077,0)"><line stroke="#000" y2="6"></line><text fill="#000" y="9" dy="0.71em" transform="translate(-10,0)rotate(-45)" style="text-anchor: end;">5,000</text></g><g class="tick" opacity="1" transform="translate(157.42307692307693,0)"><line stroke="#000" y2="6"></line><text fill="#000" y="9" dy="0.71em" transform="translate(-10,0)rotate(-45)" style="text-anchor: end;">6,000</text></g><g class="tick" opacity="1" transform="translate(183.57692307692307,0)"><line stroke="#000" y2="6"></line><text fill="#000" y="9" dy="0.71em" transform="translate(-10,0)rotate(-45)" style="text-anchor: end;">7,000</text></g><g class="tick" opacity="1" transform="translate(209.73076923076925,0)"><line stroke="#000" y2="6"></line><text fill="#000" y="9" dy="0.71em" transform="translate(-10,0)rotate(-45)" style="text-anchor: end;">8,000</text></g><g class="tick" opacity="1" transform="translate(235.8846153846154,0)"><line stroke="#000" y2="6"></line><text fill="#000" y="9" dy="0.71em" transform="translate(-10,0)rotate(-45)" style="text-anchor: end;">9,000</text></g><g class="tick" opacity="1" transform="translate(262.03846153846155,0)"><line stroke="#000" y2="6"></line><text fill="#000" y="9" dy="0.71em" transform="translate(-10,0)rotate(-45)" style="text-anchor: end;">10,000</text></g><g class="tick" opacity="1" transform="translate(288.1923076923077,0)"><line stroke="#000" y2="6"></line><text fill="#000" y="9" dy="0.71em" transform="translate(-10,0)rotate(-45)" style="text-anchor: end;">11,000</text></g><g class="tick" opacity="1" transform="translate(314.34615384615387,0)"><line stroke="#000" y2="6"></line><text fill="#000" y="9" dy="0.71em" transform="translate(-10,0)rotate(-45)" style="text-anchor: end;">12,000</text></g><g class="tick" opacity="1" transform="translate(340.5,0)"><line stroke="#000" y2="6"></line><text fill="#000" y="9" dy="0.71em" transform="translate(-10,0)rotate(-45)" style="text-anchor: end;">13,000</text></g></g><g fill="none" font-size="10" font-family="sans-serif" text-anchor="end"><path class="domain" stroke="#000" d="M-6,0.5H0.5V340.5H-6"></path><g class="tick" opacity="1" transform="translate(0,9.303482587064664)"><line stroke="#000" x2="-6"></line><text fill="#000" x="-9" dy="0.32em">cUnited States</text></g><g class="tick" opacity="1" transform="translate(0,26.218905472636806)"><line stroke="#000" x2="-6"></line><text fill="#000" x="-9" dy="0.32em">cRussia</text></g><g class="tick" opacity="1" transform="translate(0,43.13432835820895)"><line stroke="#000" x2="-6"></line><text fill="#000" x="-9" dy="0.32em">cGermany (FRG)</text></g><g class="tick" opacity="1" transform="translate(0,60.04975124378109)"><line stroke="#000" x2="-6"></line><text fill="#000" x="-9" dy="0.32em">cFrance</text></g><g class="tick" opacity="1" transform="translate(0,76.96517412935323)"><line stroke="#000" x2="-6"></line><text fill="#000" x="-9" dy="0.32em">cUnited Kingdom</text></g><g class="tick" opacity="1" transform="translate(0,93.88059701492537)"><line stroke="#000" x2="-6"></line><text fill="#000" x="-9" dy="0.32em">cChina</text></g><g class="tick" opacity="1" transform="translate(0,110.79601990049751)"><line stroke="#000" x2="-6"></line><text fill="#000" x="-9" dy="0.32em">cSpain</text></g><g class="tick" opacity="1" transform="translate(0,127.71144278606965)"><line stroke="#000" x2="-6"></line><text fill="#000" x="-9" dy="0.32em">cNetherlands</text></g><g class="tick" opacity="1" transform="translate(0,144.6268656716418)"><line stroke="#000" x2="-6"></line><text fill="#000" x="-9" dy="0.32em">cItaly</text></g><g class="tick" opacity="1" transform="translate(0,161.54228855721394)"><line stroke="#000" x2="-6"></line><text fill="#000" x="-9" dy="0.32em">cIsrael</text></g><g class="tick" opacity="1" transform="translate(0,178.4577114427861)"><line stroke="#000" x2="-6"></line><text fill="#000" x="-9" dy="0.32em">bUnited States</text></g><g class="tick" opacity="1" transform="translate(0,195.37313432835825)"><line stroke="#000" x2="-6"></line><text fill="#000" x="-9" dy="0.32em">bRussia</text></g><g class="tick" opacity="1" transform="translate(0,212.28855721393037)"><line stroke="#000" x2="-6"></line><text fill="#000" x="-9" dy="0.32em">bGermany (FRG)</text></g><g class="tick" opacity="1" transform="translate(0,229.2039800995025)"><line stroke="#000" x2="-6"></line><text fill="#000" x="-9" dy="0.32em">bFrance</text></g><g class="tick" opacity="1" transform="translate(0,246.11940298507466)"><line stroke="#000" x2="-6"></line><text fill="#000" x="-9" dy="0.32em">bUnited Kingdom</text></g><g class="tick" opacity="1" transform="translate(0,263.0348258706468)"><line stroke="#000" x2="-6"></line><text fill="#000" x="-9" dy="0.32em">bChina</text></g><g class="tick" opacity="1" transform="translate(0,279.95024875621897)"><line stroke="#000" x2="-6"></line><text fill="#000" x="-9" dy="0.32em">bSpain</text></g><g class="tick" opacity="1" transform="translate(0,296.86567164179104)"><line stroke="#000" x2="-6"></line><text fill="#000" x="-9" dy="0.32em">bNetherlands</text></g><g class="tick" opacity="1" transform="translate(0,313.7810945273632)"><line stroke="#000" x2="-6"></line><text fill="#000" x="-9" dy="0.32em">bItaly</text></g><g class="tick" opacity="1" transform="translate(0,330.6965174129354)"><line stroke="#000" x2="-6"></line><text fill="#000" x="-9" dy="0.32em">bIsrael</text></g></g><rect x="0" y="1.6915422885572013" width="26.153846153846157" height="15.223880597014928" fill="#69b333"></rect><rect x="0" y="18.606965174129343" width="28.76923076923077" height="15.223880597014928" fill="#69b333"></rect><rect x="0" y="35.522388059701484" width="31.384615384615387" height="15.223880597014928" fill="#69b333"></rect><rect x="0" y="52.437810945273625" width="34" height="15.223880597014928" fill="#69b333"></rect><rect x="0" y="69.35323383084577" width="36.61538461538462" height="15.223880597014928" fill="#69b333"></rect><rect x="0" y="86.26865671641791" width="39.23076923076923" height="15.223880597014928" fill="#69b333"></rect><rect x="0" y="103.18407960199005" width="41.84615384615385" height="15.223880597014928" fill="#69b333"></rect><rect x="0" y="120.09950248756219" width="44.46153846153847" height="15.223880597014928" fill="#69b333"></rect><rect x="0" y="137.01492537313433" width="47.07692307692308" height="15.223880597014928" fill="#69b333"></rect><rect x="0" y="153.93034825870646" width="49.69230769230769" height="15.223880597014928" fill="#69b333"></rect><rect x="0" y="170.84577114427861" width="26.153846153846157" height="15.223880597014928" fill="#69b333"></rect><rect x="0" y="187.76119402985077" width="28.76923076923077" height="15.223880597014928" fill="#69b333"></rect><rect x="0" y="204.6766169154229" width="31.384615384615387" height="15.223880597014928" fill="#69b333"></rect><rect x="0" y="221.59203980099502" width="34" height="15.223880597014928" fill="#69b333"></rect><rect x="0" y="238.50746268656718" width="36.61538461538462" height="15.223880597014928" fill="#69b333"></rect><rect x="0" y="255.42288557213934" width="39.23076923076923" height="15.223880597014928" fill="#69b333"></rect><rect x="0" y="272.3383084577115" width="41.84615384615385" height="15.223880597014928" fill="#69b333"></rect><rect x="0" y="289.25373134328356" width="44.46153846153847" height="15.223880597014928" fill="#69b333"></rect><rect x="0" y="306.16915422885575" width="47.07692307692308" height="15.223880597014928" fill="#69b333"></rect><rect x="0" y="323.08457711442793" width="49.69230769230769" height="15.223880597014928" fill="#69b333"></rect></g></svg>